<?xml version="1.0" standalone="no"?><!DOCTYPE svg PUBLIC "-//W3C//DTD SVG 1.1//EN" "http://www.w3.org/Graphics/SVG/1.1/DTD/svg11.dtd"><svg t="1781386069810" class="icon" viewBox="0 0 1024 1024" version="1.1" xmlns="http://www.w3.org/2000/svg" p-id="4941" width="256" height="256" xmlns:xlink="http://www.w3.org/1999/xlink"><path d="M750.208 621.056a26.752 26.752 0 0 0-37.184 5.056c-8.896 11.712-1.344 28.544 10.24 37.568a348.16 348.16 0 0 1 134.528 276.8c0 14.784 11.904 26.88 26.496 26.88s21.12-12.032 21.12-26.88a401.792 401.792 0 0 0-155.2-319.424zM510.72 56.64c-145.152 0-263.168 120.192-263.168 267.968 0 97.792 53.568 188.48 137.792 235.072-159.296 54.592-269.248 209.024-269.248 380.8 0 14.784 6.528 26.88 21.184 26.88 17.536 0 26.496-12.032 26.496-26.88 0-191.936 158.656-348.096 347.008-348.096 145.152 0 263.168-120.128 263.168-267.776 0-147.776-118.08-267.968-263.232-267.968z m0 488.704c-119.424 0-216.576-99.008-216.576-220.736S391.296 103.872 510.72 103.872c119.488 0 216.704 99.008 216.704 220.736S630.272 545.344 510.72 545.344z m0 0" fill="#ffffff" p-id="4942"></path></svg>